<svg width="40" height="40" viewBox="0 0 40 40" fill="none" xmlns="http://www.w3.org/2000/svg">
<g id="vuesax/outline/add-circle">
<g id="add-circle">
<path id="Vector" d="M19.9999 37.9173C10.1166 37.9173 2.08325 29.884 2.08325 20.0007C2.08325 10.1173 10.1166 2.08398 19.9999 2.08398C29.8833 2.08398 37.9166 10.1173 37.9166 20.0007C37.9166 29.884 29.8833 37.9173 19.9999 37.9173ZM19.9999 4.58398C11.4999 4.58398 4.58325 11.5007 4.58325 20.0007C4.58325 28.5007 11.4999 35.4173 19.9999 35.4173C28.4999 35.4173 35.4166 28.5007 35.4166 20.0007C35.4166 11.5007 28.4999 4.58398 19.9999 4.58398Z" fill="white"/>
<path id="Vector_2" d="M26.6666 21.25H13.3333C12.6499 21.25 12.0833 20.6833 12.0833 20C12.0833 19.3167 12.6499 18.75 13.3333 18.75H26.6666C27.3499 18.75 27.9166 19.3167 27.9166 20C27.9166 20.6833 27.3499 21.25 26.6666 21.25Z" fill="white"/>
<path id="Vector_3" d="M20 27.9173C19.3167 27.9173 18.75 27.3507 18.75 26.6673V13.334C18.75 12.6507 19.3167 12.084 20 12.084C20.6833 12.084 21.25 12.6507 21.25 13.334V26.6673C21.25 27.3507 20.6833 27.9173 20 27.9173Z" fill="white"/>
</g>
</g>
</svg>
