<svg width="40" height="40" viewBox="0 0 40 40" fill="none" xmlns="http://www.w3.org/2000/svg">
<g id="vuesax/outline/add-square">
<g id="add-square">
<path id="Vector" d="M26.6667 21.25H13.3334C12.65 21.25 12.0834 20.6833 12.0834 20C12.0834 19.3167 12.65 18.75 13.3334 18.75H26.6667C27.35 18.75 27.9167 19.3167 27.9167 20C27.9167 20.6833 27.35 21.25 26.6667 21.25Z" fill="#F26B4E"/>
<path id="Vector_2" d="M20 27.9173C19.3167 27.9173 18.75 27.3507 18.75 26.6673V13.334C18.75 12.6507 19.3167 12.084 20 12.084C20.6833 12.084 21.25 12.6507 21.25 13.334V26.6673C21.25 27.3507 20.6833 27.9173 20 27.9173Z" fill="#F26B4E"/>
<path id="Vector_3" d="M25 37.9173H15C5.95004 37.9173 2.08337 34.0507 2.08337 25.0007V15.0007C2.08337 5.95065 5.95004 2.08398 15 2.08398H25C34.05 2.08398 37.9167 5.95065 37.9167 15.0007V25.0007C37.9167 34.0507 34.05 37.9173 25 37.9173ZM15 4.58398C7.31671 4.58398 4.58337 7.31732 4.58337 15.0007V25.0007C4.58337 32.684 7.31671 35.4173 15 35.4173H25C32.6834 35.4173 35.4167 32.684 35.4167 25.0007V15.0007C35.4167 7.31732 32.6834 4.58398 25 4.58398H15Z" fill="#F26B4E"/>
</g>
</g>
</svg>
