<svg width="40" height="40" viewBox="0 0 40 40" fill="none" xmlns="http://www.w3.org/2000/svg">
<g id="vuesax/outline/tick-circle">
<g id="tick-circle">
<path id="Vector" d="M19.9999 37.9173C10.1166 37.9173 2.08325 29.884 2.08325 20.0007C2.08325 10.1173 10.1166 2.08398 19.9999 2.08398C29.8833 2.08398 37.9166 10.1173 37.9166 20.0007C37.9166 29.884 29.8833 37.9173 19.9999 37.9173ZM19.9999 4.58398C11.4999 4.58398 4.58325 11.5007 4.58325 20.0007C4.58325 28.5007 11.4999 35.4173 19.9999 35.4173C28.4999 35.4173 35.4166 28.5007 35.4166 20.0007C35.4166 11.5007 28.4999 4.58398 19.9999 4.58398Z" fill="white"/>
<path id="Vector_2" d="M17.6334 25.9673C17.3001 25.9673 16.9834 25.834 16.7501 25.6007L12.0334 20.884C11.5501 20.4007 11.5501 19.6007 12.0334 19.1173C12.5167 18.634 13.3167 18.634 13.8001 19.1173L17.6334 22.9507L26.2001 14.384C26.6834 13.9007 27.4834 13.9007 27.9667 14.384C28.4501 14.8673 28.4501 15.6673 27.9667 16.1507L18.5167 25.6007C18.2834 25.834 17.9667 25.9673 17.6334 25.9673Z" fill="white"/>
</g>
</g>
</svg>
