<svg width="24" height="24" viewBox="0 0 24 24" fill="none" xmlns="http://www.w3.org/2000/svg">
<path d="M15 22.75H9C3.57 22.75 1.25 20.43 1.25 15V9C1.25 3.57 3.57 1.25 9 1.25H11C11.41 1.25 11.75 1.59 11.75 2C11.75 2.41 11.41 2.75 11 2.75H9C4.39 2.75 2.75 4.39 2.75 9V15C2.75 19.61 4.39 21.25 9 21.25H15C19.61 21.25 21.25 19.61 21.25 15V13C21.25 12.59 21.59 12.25 22 12.25C22.41 12.25 22.75 12.59 22.75 13V15C22.75 20.43 20.43 22.75 15 22.75Z" fill="#5E65E0"/>
<path d="M8.49984 17.6905C7.88984 17.6905 7.32984 17.4705 6.91984 17.0705C6.42984 16.5805 6.21984 15.8705 6.32984 15.1205L6.75984 12.1105C6.83984 11.5305 7.21984 10.7805 7.62984 10.3705L15.5098 2.49055C17.4998 0.500547 19.5198 0.500547 21.5098 2.49055C22.5998 3.58055 23.0898 4.69055 22.9898 5.80055C22.8998 6.70055 22.4198 7.58055 21.5098 8.48055L13.6298 16.3605C13.2198 16.7705 12.4698 17.1505 11.8898 17.2305L8.87984 17.6605C8.74984 17.6905 8.61984 17.6905 8.49984 17.6905ZM16.5698 3.55055L8.68984 11.4305C8.49984 11.6205 8.27984 12.0605 8.23984 12.3205L7.80984 15.3305C7.76984 15.6205 7.82984 15.8605 7.97984 16.0105C8.12984 16.1605 8.36984 16.2205 8.65984 16.1805L11.6698 15.7505C11.9298 15.7105 12.3798 15.4905 12.5598 15.3005L20.4398 7.42055C21.0898 6.77055 21.4298 6.19055 21.4798 5.65055C21.5398 5.00055 21.1998 4.31055 20.4398 3.54055C18.8398 1.94055 17.7398 2.39055 16.5698 3.55055Z" fill="#5E65E0"/>
<path d="M19.8501 9.83027C19.7801 9.83027 19.7101 9.82027 19.6501 9.80027C17.0201 9.06027 14.9301 6.97027 14.1901 4.34027C14.0801 3.94027 14.3101 3.53027 14.7101 3.41027C15.1101 3.30027 15.5201 3.53027 15.6301 3.93027C16.2301 6.06027 17.9201 7.75027 20.0501 8.35027C20.4501 8.46027 20.6801 8.88027 20.5701 9.28027C20.4801 9.62027 20.1801 9.83027 19.8501 9.83027Z" fill="#5E65E0"/>
</svg>
