<svg width="40" height="40" viewBox="0 0 40 40" fill="none" xmlns="http://www.w3.org/2000/svg">
<g id="vuesax/outline/info-circle">
<g id="info-circle">
<path id="Vector" d="M20.0002 37.9173C10.1168 37.9173 2.0835 29.884 2.0835 20.0007C2.0835 10.1173 10.1168 2.08398 20.0002 2.08398C29.8835 2.08398 37.9168 10.1173 37.9168 20.0007C37.9168 29.884 29.8835 37.9173 20.0002 37.9173ZM20.0002 4.58398C11.5002 4.58398 4.5835 11.5007 4.5835 20.0007C4.5835 28.5007 11.5002 35.4173 20.0002 35.4173C28.5002 35.4173 35.4168 28.5007 35.4168 20.0007C35.4168 11.5007 28.5002 4.58398 20.0002 4.58398Z" fill="#06082E"/>
<path id="Vector_2" d="M20 22.9173C19.3167 22.9173 18.75 22.3507 18.75 21.6673V13.334C18.75 12.6507 19.3167 12.084 20 12.084C20.6833 12.084 21.25 12.6507 21.25 13.334V21.6673C21.25 22.3507 20.6833 22.9173 20 22.9173Z" fill="#06082E"/>
<path id="Vector_3" d="M20.0002 28.3328C19.7835 28.3328 19.5668 28.2828 19.3668 28.1995C19.1668 28.1161 18.9835 27.9995 18.8168 27.8495C18.6668 27.6828 18.5502 27.5161 18.4668 27.2995C18.3835 27.0995 18.3335 26.8828 18.3335 26.6661C18.3335 26.4495 18.3835 26.2328 18.4668 26.0328C18.5502 25.8328 18.6668 25.6495 18.8168 25.4828C18.9835 25.3328 19.1668 25.2161 19.3668 25.1328C19.7668 24.9661 20.2335 24.9661 20.6335 25.1328C20.8335 25.2161 21.0168 25.3328 21.1835 25.4828C21.3335 25.6495 21.4502 25.8328 21.5335 26.0328C21.6168 26.2328 21.6668 26.4495 21.6668 26.6661C21.6668 26.8828 21.6168 27.0995 21.5335 27.2995C21.4502 27.5161 21.3335 27.6828 21.1835 27.8495C21.0168 27.9995 20.8335 28.1161 20.6335 28.1995C20.4335 28.2828 20.2168 28.3328 20.0002 28.3328Z" fill="#06082E"/>
</g>
</g>
</svg>
