<svg width="40" height="40" viewBox="0 0 40 40" fill="none" xmlns="http://www.w3.org/2000/svg">
<g id="vuesax/outline/location-add">
<g id="location-add">
<path id="Vector" d="M24.5832 19.583H15.4165C14.7332 19.583 14.1665 19.0163 14.1665 18.333C14.1665 17.6497 14.7332 17.083 15.4165 17.083H24.5832C25.2665 17.083 25.8332 17.6497 25.8332 18.333C25.8332 19.0163 25.2665 19.583 24.5832 19.583Z" fill="white"/>
<path id="Vector_2" d="M20 24.1667C19.3167 24.1667 18.75 23.6 18.75 22.9167V13.75C18.75 13.0667 19.3167 12.5 20 12.5C20.6833 12.5 21.25 13.0667 21.25 13.75V22.9167C21.25 23.6 20.6833 24.1667 20 24.1667Z" fill="white"/>
<path id="Vector_3" d="M19.9998 37.933C17.5331 37.933 15.0498 36.9997 13.1165 35.1497C8.1998 30.4163 2.76647 22.8663 4.81647 13.883C6.66647 5.73301 13.7831 2.08301 19.9998 2.08301C19.9998 2.08301 19.9998 2.08301 20.0165 2.08301C26.2331 2.08301 33.3498 5.73301 35.1998 13.8997C37.2331 22.883 31.7998 30.4163 26.8831 35.1497C24.9498 36.9997 22.4665 37.933 19.9998 37.933ZM19.9998 4.58301C15.1498 4.58301 8.91647 7.16634 7.26647 14.433C5.46647 22.283 10.3998 29.0497 14.8665 33.333C17.7498 36.1163 22.2665 36.1163 25.1498 33.333C29.5998 29.0497 34.5331 22.283 32.7665 14.433C31.0998 7.16634 24.8498 4.58301 19.9998 4.58301Z" fill="white"/>
</g>
</g>
</svg>
