<svg width="40" height="40" viewBox="0 0 40 40" fill="none" xmlns="http://www.w3.org/2000/svg">
<g id="vuesax/outline/location-add">
<g id="location-add">
<path id="Vector" d="M24.5832 19.584H15.4165C14.7332 19.584 14.1665 19.0173 14.1665 18.334C14.1665 17.6507 14.7332 17.084 15.4165 17.084H24.5832C25.2665 17.084 25.8332 17.6507 25.8332 18.334C25.8332 19.0173 25.2665 19.584 24.5832 19.584Z" fill="#7E7E7E"/>
<path id="Vector_2" d="M20 24.1667C19.3167 24.1667 18.75 23.6 18.75 22.9167V13.75C18.75 13.0667 19.3167 12.5 20 12.5C20.6833 12.5 21.25 13.0667 21.25 13.75V22.9167C21.25 23.6 20.6833 24.1667 20 24.1667Z" fill="#7E7E7E"/>
<path id="Vector_3" d="M19.9998 37.934C17.5331 37.934 15.0498 37.0007 13.1165 35.1507C8.1998 30.4173 2.76647 22.8673 4.81647 13.884C6.66647 5.73398 13.7831 2.08398 19.9998 2.08398C19.9998 2.08398 19.9998 2.08398 20.0165 2.08398C26.2331 2.08398 33.3498 5.73398 35.1998 13.9007C37.2331 22.884 31.7998 30.4173 26.8831 35.1507C24.9498 37.0007 22.4665 37.934 19.9998 37.934ZM19.9998 4.58398C15.1498 4.58398 8.91647 7.16732 7.26647 14.434C5.46647 22.284 10.3998 29.0507 14.8665 33.334C17.7498 36.1173 22.2665 36.1173 25.1498 33.334C29.5998 29.0507 34.5331 22.284 32.7665 14.434C31.0998 7.16732 24.8498 4.58398 19.9998 4.58398Z" fill="#7E7E7E"/>
</g>
</g>
</svg>
