<svg width="40" height="40" viewBox="0 0 40 40" fill="none" xmlns="http://www.w3.org/2000/svg">
<g id="vuesax/outline/money-add">
<g id="money-add">
<path id="Vector" d="M19.9999 25.4173C17.0166 25.4173 14.5833 22.984 14.5833 20.0007C14.5833 17.0173 17.0166 14.584 19.9999 14.584C22.9833 14.584 25.4166 17.0173 25.4166 20.0007C25.4166 22.984 22.9833 25.4173 19.9999 25.4173ZM19.9999 17.084C18.3999 17.084 17.0833 18.4007 17.0833 20.0007C17.0833 21.6007 18.3999 22.9173 19.9999 22.9173C21.5999 22.9173 22.9166 21.6007 22.9166 20.0007C22.9166 18.4007 21.5999 17.084 19.9999 17.084Z" fill="#7E7E7E"/>
<path id="Vector_2" d="M30.8333 25.4173C30.1499 25.4173 29.5833 24.8507 29.5833 24.1673V15.834C29.5833 15.1507 30.1499 14.584 30.8333 14.584C31.5166 14.584 32.0833 15.1507 32.0833 15.834V24.1673C32.0833 24.8507 31.5166 25.4173 30.8333 25.4173Z" fill="#7E7E7E"/>
<path id="Vector_3" d="M8.33341 37.9173C5.56675 37.9173 2.96675 36.4507 1.56675 34.0673C0.816752 32.8673 0.416748 31.4507 0.416748 30.0007C0.416748 25.634 3.96675 22.084 8.33341 22.084C12.7001 22.084 16.2501 25.634 16.2501 30.0007C16.2501 31.4507 15.8501 32.8673 15.1001 34.084C13.7001 36.4507 11.1001 37.9173 8.33341 37.9173ZM8.33341 24.584C5.35008 24.584 2.91675 27.0173 2.91675 30.0007C2.91675 30.984 3.18342 31.9506 3.70008 32.784C4.66675 34.4173 6.45008 35.4173 8.33341 35.4173C10.2167 35.4173 12.0001 34.4173 12.9667 32.8006C13.4834 31.9506 13.7501 31.0007 13.7501 30.0007C13.7501 27.0173 11.3167 24.584 8.33341 24.584Z" fill="#7E7E7E"/>
<path id="Vector_4" d="M10.8329 31.2168H5.84961C5.16628 31.2168 4.59961 30.6501 4.59961 29.9668C4.59961 29.2835 5.16628 28.7168 5.84961 28.7168H10.8329C11.5163 28.7168 12.0829 29.2835 12.0829 29.9668C12.0829 30.6501 11.5163 31.2168 10.8329 31.2168Z" fill="#7E7E7E"/>
<path id="Vector_5" d="M8.33325 33.7665C7.64992 33.7665 7.08325 33.1999 7.08325 32.5165V27.5332C7.08325 26.8499 7.64992 26.2832 8.33325 26.2832C9.01658 26.2832 9.58325 26.8499 9.58325 27.5332V32.5165C9.58325 33.2165 9.01658 33.7665 8.33325 33.7665Z" fill="#7E7E7E"/>
<path id="Vector_6" d="M28.3333 34.5827H14.1666C13.4833 34.5827 12.9166 34.016 12.9166 33.3327C12.9166 32.6493 13.4833 32.0827 14.1666 32.0827H28.3333C33.0999 32.0827 35.4166 29.766 35.4166 24.9993V14.9993C35.4166 10.2327 33.0999 7.91602 28.3333 7.91602H11.6666C6.89992 7.91602 4.58325 10.2327 4.58325 14.9993V25.4993C4.58325 26.1827 4.01659 26.7493 3.33325 26.7493C2.64992 26.7493 2.08325 26.1827 2.08325 25.4993V14.9993C2.08325 8.91602 5.58325 5.41602 11.6666 5.41602H28.3333C34.4166 5.41602 37.9166 8.91602 37.9166 14.9993V24.9993C37.9166 31.0827 34.4166 34.5827 28.3333 34.5827Z" fill="#7E7E7E"/>
</g>
</g>
</svg>
