<svg width="40" height="40" viewBox="0 0 40 40" fill="none" xmlns="http://www.w3.org/2000/svg">
<g id="vuesax/outline/money-add">
<g id="money-add">
<path id="Vector" d="M19.9997 25.4163C17.0163 25.4163 14.583 22.983 14.583 19.9997C14.583 17.0163 17.0163 14.583 19.9997 14.583C22.983 14.583 25.4163 17.0163 25.4163 19.9997C25.4163 22.983 22.983 25.4163 19.9997 25.4163ZM19.9997 17.083C18.3997 17.083 17.083 18.3997 17.083 19.9997C17.083 21.5997 18.3997 22.9163 19.9997 22.9163C21.5997 22.9163 22.9163 21.5997 22.9163 19.9997C22.9163 18.3997 21.5997 17.083 19.9997 17.083Z" fill="white"/>
<path id="Vector_2" d="M30.833 25.4163C30.1497 25.4163 29.583 24.8497 29.583 24.1663V15.833C29.583 15.1497 30.1497 14.583 30.833 14.583C31.5163 14.583 32.083 15.1497 32.083 15.833V24.1663C32.083 24.8497 31.5163 25.4163 30.833 25.4163Z" fill="white"/>
<path id="Vector_3" d="M8.33366 37.9163C5.56699 37.9163 2.967 36.4497 1.567 34.0663C0.816996 32.8663 0.416992 31.4497 0.416992 29.9997C0.416992 25.633 3.96699 22.083 8.33366 22.083C12.7003 22.083 16.2503 25.633 16.2503 29.9997C16.2503 31.4497 15.8503 32.8664 15.1003 34.083C13.7003 36.4497 11.1003 37.9163 8.33366 37.9163ZM8.33366 24.583C5.35033 24.583 2.91699 27.0163 2.91699 29.9997C2.91699 30.983 3.18366 31.9496 3.70033 32.783C4.66699 34.4163 6.45033 35.4163 8.33366 35.4163C10.217 35.4163 12.0003 34.4163 12.967 32.7997C13.4837 31.9497 13.7503 30.9997 13.7503 29.9997C13.7503 27.0163 11.317 24.583 8.33366 24.583Z" fill="white"/>
<path id="Vector_4" d="M10.8329 31.2168H5.84961C5.16628 31.2168 4.59961 30.6501 4.59961 29.9668C4.59961 29.2835 5.16628 28.7168 5.84961 28.7168H10.8329C11.5163 28.7168 12.0829 29.2835 12.0829 29.9668C12.0829 30.6501 11.5163 31.2168 10.8329 31.2168Z" fill="white"/>
<path id="Vector_5" d="M8.33301 33.7665C7.64967 33.7665 7.08301 33.1999 7.08301 32.5165V27.5332C7.08301 26.8499 7.64967 26.2832 8.33301 26.2832C9.01634 26.2832 9.58301 26.8499 9.58301 27.5332V32.5165C9.58301 33.2165 9.01634 33.7665 8.33301 33.7665Z" fill="white"/>
<path id="Vector_6" d="M28.333 34.5837H14.1663C13.483 34.5837 12.9163 34.017 12.9163 33.3337C12.9163 32.6503 13.483 32.0837 14.1663 32.0837H28.333C33.0997 32.0837 35.4163 29.767 35.4163 25.0003V15.0003C35.4163 10.2337 33.0997 7.91699 28.333 7.91699H11.6663C6.89967 7.91699 4.58301 10.2337 4.58301 15.0003V25.5003C4.58301 26.1836 4.01634 26.7503 3.33301 26.7503C2.64967 26.7503 2.08301 26.1836 2.08301 25.5003V15.0003C2.08301 8.91699 5.58301 5.41699 11.6663 5.41699H28.333C34.4163 5.41699 37.9163 8.91699 37.9163 15.0003V25.0003C37.9163 31.0837 34.4163 34.5837 28.333 34.5837Z" fill="white"/>
</g>
</g>
</svg>
