<svg width="40" height="40" viewBox="0 0 40 40" fill="none" xmlns="http://www.w3.org/2000/svg">
<g id="vuesax/outline/image">
<g id="image">
<path id="Vector" d="M30.6001 37.9164H9.31677C6.78344 37.9164 4.46677 36.633 3.13344 34.4664C1.8001 32.2997 1.68344 29.6664 2.81677 27.383L5.68344 21.633C6.61677 19.7664 8.11677 18.5997 9.8001 18.4164C11.4834 18.233 13.2001 19.0664 14.5001 20.683L14.8668 21.1497C15.6001 22.0497 16.4501 22.533 17.2834 22.4497C18.1168 22.383 18.8834 21.783 19.4501 20.7664L22.6001 15.083C23.9001 12.733 25.6334 11.5164 27.5168 11.5997C29.3834 11.6997 30.9834 13.0997 32.0501 15.5664L37.2668 27.7497C38.2334 29.9997 38.0001 32.5664 36.6501 34.6164C35.3168 36.6997 33.0501 37.9164 30.6001 37.9164ZM10.2668 20.9164C10.2001 20.9164 10.1334 20.9164 10.0668 20.933C9.23344 21.0164 8.46677 21.683 7.91677 22.7664L5.0501 28.5164C4.3001 29.9997 4.38344 31.7497 5.2501 33.1664C6.11677 34.583 7.6501 35.433 9.31677 35.433H30.5834C32.2168 35.433 33.6668 34.6497 34.5668 33.283C35.4668 31.9164 35.6168 30.283 34.9668 28.783L29.7501 16.5997C29.1168 15.0997 28.2334 14.183 27.3834 14.1497C26.6001 14.0997 25.5834 14.933 24.7834 16.3497L21.6334 22.033C20.6668 23.7664 19.1501 24.8497 17.5001 24.9997C15.8501 25.133 14.1668 24.333 12.9168 22.7664L12.5501 22.2997C11.8501 21.383 11.0501 20.9164 10.2668 20.9164Z" fill="#06082E"/>
<path id="Vector_2" d="M11.6162 14.583C8.18288 14.583 5.36621 11.783 5.36621 8.33301C5.36621 4.88301 8.16621 2.08301 11.6162 2.08301C15.0662 2.08301 17.8662 4.88301 17.8662 8.33301C17.8662 11.783 15.0662 14.583 11.6162 14.583ZM11.6162 4.58301C9.54954 4.58301 7.86621 6.26634 7.86621 8.33301C7.86621 10.3997 9.54954 12.083 11.6162 12.083C13.6829 12.083 15.3662 10.3997 15.3662 8.33301C15.3662 6.26634 13.6829 4.58301 11.6162 4.58301Z" fill="#06082E"/>
</g>
</g>
</svg>
