<svg width="40" height="40" viewBox="0 0 40 40" fill="none" xmlns="http://www.w3.org/2000/svg">
<g id="vuesax/outline/refresh-circle">
<g id="refresh-circle">
<path id="Vector" d="M19.9999 37.4173C10.3927 37.4173 2.58325 29.6078 2.58325 20.0007C2.58325 10.3935 10.3927 2.58398 19.9999 2.58398C29.6071 2.58398 37.4166 10.3935 37.4166 20.0007C37.4166 29.6078 29.6071 37.4173 19.9999 37.4173ZM19.9999 4.08398C11.2238 4.08398 4.08325 11.2245 4.08325 20.0007C4.08325 28.7768 11.2238 35.9173 19.9999 35.9173C28.7761 35.9173 35.9166 28.7768 35.9166 20.0007C35.9166 11.2245 28.7761 4.08398 19.9999 4.08398Z" fill="#7E7E7E" stroke="#7E7E7E"/>
<path id="Vector_2" d="M20 29.1174C17.6666 29.1174 15.3333 28.2341 13.55 26.4508C13.0833 25.9841 12.6666 25.4674 12.2833 24.8508C11.9166 24.2674 12.1 23.5008 12.6833 23.1341C13.2666 22.7675 14.0333 22.9508 14.4 23.5341C14.6833 24.0008 14.9833 24.3675 15.3167 24.7008C17.9 27.2842 22.1 27.2842 24.6833 24.7008C25.6833 23.7008 26.3167 22.4008 26.5333 20.9508C26.6333 20.2675 27.2666 19.7675 27.95 19.8841C28.6333 19.9841 29.1 20.6175 29.0167 21.3009C28.7333 23.2842 27.85 25.0675 26.4667 26.4675C24.6667 28.2341 22.3333 29.1174 20 29.1174Z" fill="#7E7E7E"/>
<path id="Vector_3" d="M12.2331 20.1336C12.1664 20.1336 12.1164 20.1336 12.0498 20.1169C11.3664 20.0169 10.8831 19.3836 10.9831 18.7002C11.2664 16.7169 12.1497 14.9336 13.5331 13.5336C17.0831 9.98359 22.8664 9.98359 26.4331 13.5336C26.8997 14.0003 27.3164 14.517 27.6997 15.1503C28.0664 15.7336 27.8831 16.5003 27.2998 16.8669C26.7164 17.2336 25.9498 17.0503 25.5831 16.4669C25.2998 16.0169 24.9997 15.6336 24.6664 15.3003C22.0831 12.7169 17.8831 12.7169 15.2997 15.3003C14.2997 16.3003 13.6664 17.6003 13.4498 19.0503C13.3831 19.6836 12.8497 20.1336 12.2331 20.1336Z" fill="#7E7E7E"/>
<path id="Vector_4" d="M13.0339 29.8836C12.3506 29.8836 11.7839 29.3169 11.7839 28.6336V24.1836C11.7839 23.5003 12.3506 22.9336 13.0339 22.9336H17.4839C18.1672 22.9336 18.7339 23.5003 18.7339 24.1836C18.7339 24.8669 18.1672 25.4336 17.4839 25.4336H14.2839V28.6336C14.2839 29.3169 13.7339 29.8836 13.0339 29.8836Z" fill="#7E7E7E"/>
<path id="Vector_5" d="M26.9663 17.0672H22.5164C21.833 17.0672 21.2664 16.5005 21.2664 15.8172C21.2664 15.1338 21.833 14.5672 22.5164 14.5672H25.7163V11.3672C25.7163 10.6839 26.283 10.1172 26.9663 10.1172C27.6497 10.1172 28.2163 10.6839 28.2163 11.3672V15.8172C28.2163 16.5172 27.6497 17.0672 26.9663 17.0672Z" fill="#7E7E7E"/>
</g>
</g>
</svg>
