<svg width="40" height="40" viewBox="0 0 40 40" fill="none" xmlns="http://www.w3.org/2000/svg">
<g id="vuesax/outline/close-circle">
<g id="close-circle">
<path id="Vector" d="M19.9999 37.9173C10.1166 37.9173 2.08325 29.884 2.08325 20.0007C2.08325 10.1173 10.1166 2.08398 19.9999 2.08398C29.8833 2.08398 37.9166 10.1173 37.9166 20.0007C37.9166 29.884 29.8833 37.9173 19.9999 37.9173ZM19.9999 4.58398C11.4999 4.58398 4.58325 11.5007 4.58325 20.0007C4.58325 28.5007 11.4999 35.4173 19.9999 35.4173C28.4999 35.4173 35.4166 28.5007 35.4166 20.0007C35.4166 11.5007 28.4999 4.58398 19.9999 4.58398Z" fill="#F26B4E"/>
<path id="Vector_2" d="M15.2834 25.9663C14.9668 25.9663 14.6501 25.8496 14.4001 25.5996C13.9168 25.1163 13.9168 24.3163 14.4001 23.8329L23.8334 14.3996C24.3168 13.9163 25.1168 13.9163 25.6001 14.3996C26.0834 14.8829 26.0834 15.6829 25.6001 16.1663L16.1668 25.5996C15.9334 25.8496 15.6001 25.9663 15.2834 25.9663Z" fill="#F26B4E"/>
<path id="Vector_3" d="M24.7168 25.9663C24.4001 25.9663 24.0834 25.8496 23.8334 25.5996L14.4001 16.1663C13.9168 15.6829 13.9168 14.8829 14.4001 14.3996C14.8834 13.9163 15.6834 13.9163 16.1668 14.3996L25.6001 23.8329C26.0834 24.3163 26.0834 25.1163 25.6001 25.5996C25.3501 25.8496 25.0334 25.9663 24.7168 25.9663Z" fill="#F26B4E"/>
</g>
</g>
</svg>
