<svg width="451" height="400" viewBox="0 0 451 400" fill="none" xmlns="http://www.w3.org/2000/svg">
<rect width="450.909" height="400" fill="white"/>
<path d="M253.873 115.205C253.149 114.558 252.735 113.688 252.717 112.777C252.699 111.865 253.079 110.983 253.778 110.314L279.541 85.6465C279.906 85.2971 280.347 85.0167 280.837 84.8223C281.327 84.6279 281.857 84.5234 282.393 84.5152C282.93 84.5069 283.464 84.5951 283.961 84.7743C284.459 84.9535 284.91 85.2201 285.288 85.5581L287.512 87.5449C287.891 87.8829 288.188 88.2853 288.387 88.7278C288.585 89.1704 288.681 89.644 288.668 90.1202C288.655 90.5964 288.533 91.0654 288.311 91.4989C288.088 91.9323 287.769 92.3214 287.372 92.6427L259.385 115.324C258.627 115.939 257.63 116.27 256.602 116.248C255.575 116.225 254.597 115.852 253.873 115.205Z" fill="#88B8B8"/>
<path d="M237.566 106.797C236.95 106.555 236.463 106.111 236.208 105.558C235.952 105.005 235.947 104.385 236.195 103.829L245.312 83.3163C245.441 83.0258 245.635 82.7614 245.883 82.5391C246.13 82.3168 246.425 82.1411 246.751 82.0227C247.077 81.9042 247.426 81.8454 247.778 81.8498C248.13 81.8543 248.478 81.9218 248.8 82.0483L250.692 82.7923C251.014 82.9189 251.303 83.1019 251.543 83.3303C251.784 83.5587 251.969 83.8278 252.089 84.1215C252.209 84.4152 252.261 84.7273 252.241 85.0392C252.221 85.351 252.131 85.6561 251.975 85.9361L240.966 105.705C240.667 106.241 240.147 106.654 239.513 106.857C238.88 107.061 238.182 107.039 237.566 106.797Z" fill="#88B8B8"/>
<path d="M220.974 110.149C218.873 110.485 216.765 108.885 216.195 106.523L206.083 64.5866C205.479 62.0804 206.832 59.6968 209.061 59.3404L212.167 58.8444C214.396 58.4884 216.602 60.3044 217.021 62.8394L224.028 105.272C224.422 107.663 223.075 109.813 220.974 110.149Z" fill="#88B8B8"/>
<path d="M384.419 149.616L339.821 144.516C339.07 144.444 338.313 144.578 337.65 144.899C336.987 145.219 336.45 145.712 336.11 146.31L324.251 167.082L274.61 255.154C274.082 256.084 273.198 256.817 272.117 257.222C271.035 257.626 269.826 257.675 268.707 257.361L133.965 219.208C133.593 219.103 133.199 219.077 132.814 219.133C132.429 219.19 132.065 219.327 131.751 219.532C131.437 219.738 131.183 220.007 131.009 220.317C130.836 220.626 130.747 220.968 130.752 221.315L130.813 226.278C130.821 226.968 131.074 227.639 131.536 228.194C131.998 228.749 132.646 229.161 133.387 229.37L275.947 269.736C277.537 270.186 278.964 271.001 280.083 272.097C281.203 273.194 281.977 274.534 282.325 275.981L282.373 276.179C283.613 282.221 276.9 287.182 270.285 285.401L113.963 241.081C113.161 240.854 112.47 240.392 112.005 239.77C111.54 239.148 111.328 238.404 111.404 237.661L123.638 119.147C123.7 118.536 123.906 117.943 124.242 117.407C124.579 116.871 125.038 116.404 125.592 116.036C126.145 115.668 126.779 115.407 127.453 115.271C128.128 115.134 128.827 115.125 129.505 115.244L316.776 147.742L328.838 126.478C329.186 125.877 329.734 125.385 330.407 125.069C331.081 124.753 331.847 124.627 332.603 124.71L387.216 130.914C387.701 130.968 388.168 131.107 388.592 131.322C389.015 131.537 389.387 131.825 389.684 132.169C389.981 132.512 390.199 132.905 390.324 133.323C390.45 133.742 390.48 134.178 390.414 134.608L388.552 146.793C388.423 147.652 387.916 148.431 387.141 148.96C386.367 149.489 385.389 149.725 384.419 149.616Z" fill="#F26B4E"/>
<path d="M131.19 198.917L146.45 203.237L161.087 137.392L137.661 134.201L131.19 198.917Z" fill="#F0EDED"/>
<path d="M250.919 232.818L266.179 237.139L305.642 163.407L288.834 159.795L250.919 232.818Z" fill="#F0EDED"/>
<path d="M192.228 216.2L206.314 220.188L236.487 150.71L213.435 146.478L192.228 216.2Z" fill="#F0EDED"/>
<path d="M174.374 140.007L197.426 144.239L176.969 211.879L161.709 207.558L174.374 140.007Z" fill="#F0EDED"/>
<path d="M274.374 156.848L251.322 152.615L222.748 224.841L236.834 228.829L274.374 156.848Z" fill="#F0EDED"/>
<path d="M134.135 283.868C144.002 283.868 152.001 276.772 152.001 268.019C152.001 259.266 144.002 252.17 134.135 252.17C124.267 252.17 116.268 259.266 116.268 268.019C116.268 276.772 124.267 283.868 134.135 283.868Z" fill="#88B8B8"/>
<path d="M245.647 315.444C255.515 315.444 263.514 308.348 263.514 299.594C263.514 290.841 255.515 283.745 245.647 283.745C235.78 283.745 227.781 290.841 227.781 299.594C227.781 308.348 235.78 315.444 245.647 315.444Z" fill="#88B8B8"/>
<path d="M392.442 130.258L345.374 125.031C345.113 125.002 344.875 125.166 344.843 125.398L341.99 145.613C341.957 145.844 342.142 146.055 342.403 146.084L389.471 151.312C389.732 151.341 389.97 151.176 390.002 150.945L392.855 130.73C392.888 130.498 392.703 130.287 392.442 130.258Z" fill="#88B8B8"/>
</svg>
