<svg width="79" height="71" viewBox="0 0 79 71" fill="none" xmlns="http://www.w3.org/2000/svg">
<g id="Group">
<g id="Group_2">
<path id="Vector" d="M39.8152 15.682C39.6161 15.5041 39.5021 15.2649 39.4972 15.0143C39.4923 14.7636 39.5968 14.521 39.7889 14.3371L46.8738 7.55344C46.9742 7.45735 47.0954 7.38026 47.2302 7.3268C47.365 7.27333 47.5106 7.2446 47.6583 7.24233C47.8059 7.24006 47.9525 7.2643 48.0893 7.31358C48.2261 7.36287 48.3503 7.43619 48.4543 7.52913L49.066 8.0755C49.17 8.16845 49.2518 8.27911 49.3064 8.40082C49.361 8.52253 49.3873 8.65277 49.3837 8.78373C49.3801 8.91468 49.3467 9.04364 49.2855 9.16284C49.2243 9.28205 49.1365 9.38904 49.0275 9.47739L41.3311 15.7147C41.1224 15.8838 40.8482 15.9749 40.5657 15.9688C40.2832 15.9627 40.0143 15.8599 39.8152 15.682Z" fill="#88B8B8"/>
<path id="Vector_2" d="M35.3305 13.3683C35.1611 13.3017 35.0273 13.1796 34.957 13.0275C34.8867 12.8754 34.8854 12.7051 34.9534 12.5522L37.4607 6.91116C37.4962 6.83126 37.5496 6.75855 37.6176 6.69742C37.6856 6.63628 37.7669 6.58797 37.8565 6.5554C37.946 6.52283 38.0421 6.50666 38.1389 6.50788C38.2358 6.50909 38.3313 6.52766 38.4198 6.56246L38.9401 6.76706C39.0286 6.80186 39.1083 6.85218 39.1743 6.915C39.2404 6.97781 39.2914 7.05183 39.3244 7.13259C39.3573 7.21335 39.3715 7.29919 39.3661 7.38494C39.3607 7.4707 39.3358 7.5546 39.293 7.6316L36.2655 13.0681C36.1834 13.2155 36.0403 13.329 35.866 13.385C35.6918 13.4409 35.4999 13.4349 35.3305 13.3683Z" fill="#88B8B8"/>
<path id="Vector_3" d="M30.7678 14.2909C30.19 14.3832 29.6103 13.9434 29.4534 13.2939L26.6726 1.76129C26.5067 1.07209 26.8787 0.416597 27.4917 0.318587L28.3459 0.182186C28.9588 0.0842861 29.5656 0.583686 29.6807 1.28081L31.6075 12.9498C31.716 13.6072 31.3457 14.1987 30.7678 14.2909Z" fill="#88B8B8"/>
<path id="Vector_4" d="M75.7152 25.1449L63.4508 23.7424C63.2443 23.7228 63.036 23.7596 62.8537 23.8478C62.6713 23.936 62.5236 24.0714 62.4303 24.2359L59.1691 29.9482L45.5177 54.1679C45.3726 54.4238 45.1295 54.6254 44.832 54.7366C44.5345 54.8478 44.2021 54.8614 43.8944 54.7748L6.84038 44.2827C6.73818 44.2538 6.62969 44.2468 6.52384 44.2623C6.418 44.2778 6.31781 44.3154 6.23153 44.372C6.14526 44.4285 6.07536 44.5025 6.02757 44.5877C5.97979 44.6729 5.9555 44.7669 5.95669 44.8621L5.97368 46.2271C5.97575 46.4169 6.04528 46.6012 6.17235 46.7539C6.29943 46.9066 6.47757 47.0198 6.68141 47.0774L45.8855 58.178C46.3225 58.3017 46.7149 58.5258 47.0229 58.8274C47.3309 59.129 47.5436 59.4975 47.6394 59.8955L47.6524 59.9498C47.9934 61.6115 46.1476 62.9756 44.3284 62.4858L1.3398 50.2978C1.11929 50.2356 0.929337 50.1085 0.80138 49.9374C0.673424 49.7664 0.615135 49.5617 0.636161 49.3573L4.00053 16.7661C4.01744 16.5981 4.074 16.435 4.16654 16.2877C4.25908 16.1403 4.38553 16.0118 4.53767 15.9106C4.68981 15.8093 4.86425 15.7376 5.04966 15.7001C5.23507 15.6625 5.42731 15.66 5.6139 15.6927L57.1134 24.6298L60.4305 18.782C60.5262 18.6167 60.6769 18.4815 60.862 18.3945C61.0472 18.3076 61.2579 18.2732 61.4658 18.2959L76.4844 20.002C76.6176 20.0168 76.7462 20.055 76.8627 20.1142C76.9792 20.1734 77.0813 20.2526 77.1631 20.347C77.2449 20.4415 77.3047 20.5494 77.3392 20.6645C77.3736 20.7796 77.382 20.8997 77.3638 21.0177L76.8517 24.3687C76.8162 24.605 76.6768 24.8192 76.4639 24.9647C76.2509 25.1101 75.9818 25.1749 75.7152 25.1449Z" fill="#F26B4E"/>
<path id="Vector_5" d="M6.07727 38.703L10.2737 39.8912L14.299 21.7838L7.85673 20.9062L6.07727 38.703Z" fill="#F0EDED"/>
<path id="Vector_6" d="M39.0029 48.0247L43.1993 49.2129L54.0518 28.9366L49.4295 27.9434L39.0029 48.0247Z" fill="#F0EDED"/>
<path id="Vector_7" d="M22.8628 43.4549L26.7364 44.5517L35.0338 25.4451L28.6946 24.2812L22.8628 43.4549Z" fill="#F0EDED"/>
<path id="Vector_8" d="M17.9528 22.502L24.292 23.6658L18.6663 42.2667L14.47 41.0785L17.9528 22.502Z" fill="#F0EDED"/>
<path id="Vector_9" d="M45.4527 27.1327L39.1135 25.9688L31.2556 45.8308L35.1293 46.9276L45.4527 27.1327Z" fill="#F0EDED"/>
<path id="Vector_10" d="M6.88701 62.0647C9.60052 62.0647 11.8003 60.1133 11.8003 57.7062C11.8003 55.299 9.60052 53.3477 6.88701 53.3477C4.17349 53.3477 1.97375 55.299 1.97375 57.7062C1.97375 60.1133 4.17349 62.0647 6.88701 62.0647Z" fill="#88B8B8"/>
<path id="Vector_11" d="M37.5529 70.7464C40.2664 70.7464 42.4662 68.795 42.4662 66.3878C42.4662 63.9807 40.2664 62.0293 37.5529 62.0293C34.8394 62.0293 32.6396 63.9807 32.6396 66.3878C32.6396 68.795 34.8394 70.7464 37.5529 70.7464Z" fill="#88B8B8"/>
<path id="Vector_12" d="M77.9214 19.8211L64.9778 18.3836C64.9061 18.3756 64.8406 18.4207 64.8316 18.4844L64.0471 24.0435C64.0381 24.1072 64.089 24.1652 64.1607 24.1732L77.1043 25.6107C77.1761 25.6187 77.2416 25.5736 77.2505 25.5099L78.0351 19.9508C78.0441 19.8871 77.9932 19.8291 77.9214 19.8211Z" fill="#88B8B8"/>
</g>
</g>
</svg>
