<svg width="186" height="160" viewBox="0 0 186 160" fill="none" xmlns="http://www.w3.org/2000/svg">
<rect x="0.0385742" width="185.934" height="159.162" rx="16" fill="white"/>
<rect x="10" y="36.168" width="67" height="16" rx="8" fill="#D9D9D9"/>
<rect x="10" y="62.168" width="67" height="16" rx="8" fill="#D9D9D9"/>
<rect x="10" y="88.168" width="67" height="16" rx="8" fill="#D9D9D9"/>
<rect x="63.0386" y="126" width="60" height="20" rx="10" fill="#FDC3B5"/>
<path d="M159.667 63.416H126.333C125.65 63.416 125.083 62.8493 125.083 62.166C125.083 61.4827 125.65 60.916 126.333 60.916H159.667C160.35 60.916 160.917 61.4827 160.917 62.166C160.917 62.8493 160.35 63.416 159.667 63.416Z" fill="#5E65E0"/>
<path d="M136.333 76.75H133C132.317 76.75 131.75 76.1833 131.75 75.5C131.75 74.8167 132.317 74.25 133 74.25H136.333C137.017 74.25 137.583 74.8167 137.583 75.5C137.583 76.1833 137.017 76.75 136.333 76.75Z" fill="#5E65E0"/>
<path d="M147.167 76.75H140.5C139.817 76.75 139.25 76.1833 139.25 75.5C139.25 74.8167 139.817 74.25 140.5 74.25H147.167C147.85 74.25 148.417 74.8167 148.417 75.5C148.417 76.1833 147.85 76.75 147.167 76.75Z" fill="#5E65E0"/>
<path d="M152.267 83.4173H133.733C127.1 83.4173 125.083 81.4173 125.083 74.8507V61.1507C125.083 54.584 127.1 52.584 133.733 52.584H152.25C158.883 52.584 160.9 54.584 160.9 61.1507V74.834C160.917 81.4173 158.9 83.4173 152.267 83.4173ZM133.733 55.084C128.5 55.084 127.583 55.984 127.583 61.1507V74.834C127.583 80.0007 128.5 80.9007 133.733 80.9007H152.25C157.483 80.9007 158.4 80.0007 158.4 74.834V61.1507C158.4 55.984 157.483 55.084 152.25 55.084H133.733Z" fill="#5E65E0"/>
</svg>
